<svg version="1.1" id="Layer_1" xmlns="http://www.w3.org/2000/svg" x="0" y="0" viewBox="0 0 500 500" style="enable-background:new 0 0 500 500" xml:space="preserve"><style>.st0{fill:#070810}</style><g id="XMLID_1_"><path id="XMLID_2_" class="st0" d="m379.2 173.7 47.6-100.2-100 47.5c21.5 13 39.6 31.1 52.4 52.7z"/><path id="XMLID_6_" class="st0" d="m326.1 379.3 100.7 47.8L379 326.6c-12.9 21.7-31.1 39.8-52.9 52.7z"/><path id="XMLID_8_" class="st0" d="m500 250.3-104.6-37.2c3 11.8 4.6 24.1 4.6 36.9 0 13-1.6 25.6-4.7 37.6L500 250.3z"/><path id="XMLID_9_" class="st0" d="M250 375c69 0 125-56 125-125 0-16.8-3.3-32.8-9.3-47.4 0-.1-.1-.2-.1-.3-12.6-30.5-36.9-54.9-67.3-67.7-.2-.1-.4-.2-.6-.2-14.7-6.1-30.8-9.4-47.7-9.4s-33 3.4-47.7 9.4c-.2.1-.4.2-.6.2-30.4 12.7-54.7 37.2-67.3 67.7 0 .1-.1.2-.1.3-6 14.6-9.3 30.6-9.3 47.4 0 69 56 125 125 125z"/><path id="XMLID_10_" class="st0" d="M250 100c12.8 0 25.2 1.6 37.1 4.6L250 .3l-37.1 104.3c11.9-3 24.3-4.6 37.1-4.6z"/><path id="XMLID_11_" class="st0" d="M121 326.6 73.2 427.1l100.7-47.8c-21.8-12.9-40-31-52.9-52.7z"/><path id="XMLID_12_" class="st0" d="m173.3 121.1-100-47.5 47.6 100.2c12.7-21.7 30.8-39.8 52.4-52.7z"/><path id="XMLID_13_" class="st0" d="M250 400c-12.9 0-25.4-1.6-37.3-4.7l37.3 105 37.3-105c-11.9 3.1-24.4 4.7-37.3 4.7z"/><path id="XMLID_14_" class="st0" d="M100 250c0-12.7 1.6-25.1 4.6-36.9L0 250.3l104.7 37.3c-3.1-12-4.7-24.6-4.7-37.6z"/></g></svg>